# xmcd
#
# Track frame offsets:
#	150
#	15221
#	33508
#	46083
#	62842
#	74316
#	90752
#	106156
#	123134
#	138456
#	153570
#	172715
#	188327
#	194808
#	210840
#	229675
#
# Disc length: 3322 seconds
#
# Revision: 1
# Processed by: cddbd v1.5.2PL0 Copyright (c) Steve Scherf et al.
# Submitted via: audiograbber 1.83.01
#
DISCID=bc0cf810
DTITLE=Josh Abbott Band - Front Row Seat
DYEAR=2015
DGENRE=Country
TTITLE0=While I'm Young
TTITLE1=I've Been Known
TTITLE2=Live It While You Got It
TTITLE3=Wasn't That Drunk
TTITLE4=Kiss You Good
TTITLE5=If It Makes You Feel Good
TTITLE6=Crazy Things
TTITLE7=Front Row Seat
TTITLE8=Kisses We Steal
TTITLE9=Born To Break Your Heart
TTITLE10=Ghosts
TTITLE11=This Isn't Easy
TTITLE12=Intro- A Loss Of Memory
TTITLE13=Amnesia
TTITLE14=Autumn
TTITLE15=Anonymity
EXTD=
EXTT0=
EXTT1=
EXTT2=
EXTT3=
EXTT4=
EXTT5=
EXTT6=
EXTT7=
EXTT8=
EXTT9=
EXTT10=
EXTT11=
EXTT12=
EXTT13=
EXTT14=
EXTT15=
PLAYORDER=
